<svg xmlns="http://www.w3.org/2000/svg" xmlns:xlink="http://www.w3.org/1999/xlink" viewBox="0 0 322.28 45.62"><defs><clipPath id="a" transform="translate(-345.72 -473.53)"><path d="M364.85,491a1.1,1.1,0,0,0-.32.41l-9.41,18.82a1.12,1.12,0,0,0,1,1.63h13.1a1.08,1.08,0,0,0,1-.62,14.62,14.62,0,0,0,1.36-6v-1a20.41,20.41,0,0,0-5.2-13.06,1.1,1.1,0,0,0-1.53-.21" style="fill:none"/></clipPath><linearGradient id="b" x1="126.26" y1="794.17" x2="128.12" y2="794.17" gradientTransform="translate(1724.43 8997.44) rotate(180) scale(10.7)" gradientUnits="userSpaceOnUse"><stop offset="0" stop-color="#0066b2"/><stop offset="0.92" stop-color="#0087ca"/><stop offset="1" stop-color="#0087ca"/></linearGradient></defs><title>Atlassian logo</title><g style="clip-path:url(#a)"><rect x="349.9" y="488.84" width="26.63" height="25.04" transform="translate(-598.3 91.71) rotate(-60)" style="fill:url(#b)"/></g><path d="M373.29,474.14a24.82,24.82,0,0,0-1.45,24.5l6.32,12.63a1.13,1.13,0,0,0,1,.62h13.1a1.12,1.12,0,0,0,1-1.63L375.2,474.13a1.06,1.06,0,0,0-1.91,0" transform="translate(-345.72 -473.53)" style="fill:#0087ca"/><path d="M526.95,489.22c0,4.66,2.16,8.36,10.61,10,5,1.06,6.1,1.87,6.1,3.56s-1.06,2.69-4.61,2.69a26,26,0,0,1-12.25-3.31v7.59A25.07,25.07,0,0,0,539,512.37c8.84,0,12.34-3.94,12.34-9.8m0,0c0-5.52-2.93-8.12-11.19-9.89-4.56-1-5.67-2-5.67-3.46,0-1.82,1.63-2.59,4.66-2.59a26.24,26.24,0,0,1,10.66,2.64V482a24.12,24.12,0,0,0-10.42-2.16c-8.16,0-12.39,3.55-12.39,9.37" transform="translate(-345.72 -473.53)" style="fill:#0066b2"/><polygon points="294.76 6.8 294.76 38.36 301.49 38.36 301.49 14.3 304.32 20.68 313.83 38.36 322.29 38.36 322.29 6.8 315.56 6.8 315.56 27.17 313.02 21.26 305.38 6.8 294.76 6.8" style="fill:#0066b2"/><rect x="244.65" y="6.8" width="7.35" height="31.55" style="fill:#0066b2"/><path d="M581.89,502.57c0-5.52-2.93-8.12-11.19-9.89-4.56-1-5.67-2-5.67-3.46,0-1.82,1.63-2.59,4.66-2.59a26.24,26.24,0,0,1,10.66,2.64V482a24.12,24.12,0,0,0-10.42-2.16c-8.16,0-12.39,3.55-12.39,9.37,0,4.66,2.16,8.36,10.61,10,5,1.06,6.1,1.87,6.1,3.56s-1.06,2.69-4.61,2.69a26,26,0,0,1-12.25-3.31v7.59a25.07,25.07,0,0,0,12.15,2.64c8.84,0,12.34-3.94,12.34-9.8" transform="translate(-345.72 -473.53)" style="fill:#0066b2"/><polygon points="124.14 6.8 124.14 38.36 139.25 38.36 141.63 31.54 131.54 31.54 131.54 6.8 124.14 6.8" style="fill:#0066b2"/><polygon points="94.3 6.8 94.3 13.62 102.47 13.62 102.47 38.36 109.86 38.36 109.86 13.62 118.61 13.62 118.61 6.8 94.3 6.8" style="fill:#0066b2"/><path d="M429.29,480.33H419.6l-11,31.56H417l1.56-5.32a20.87,20.87,0,0,0,11.77,0l1.56,5.32h8.4Zm-4.85,20.55a14.39,14.39,0,0,1-4-.58l4-13.77,4,13.77a14.32,14.32,0,0,1-4,.58" transform="translate(-345.72 -473.53)" style="fill:#0066b2"/><path d="M511,480.33h-9.69l-11,31.56h8.41l1.56-5.32a20.87,20.87,0,0,0,11.77,0l1.56,5.32H522Zm-4.85,20.55a14.4,14.4,0,0,1-4-.58l4-13.77,4,13.77a14.32,14.32,0,0,1-4,.58" transform="translate(-345.72 -473.53)" style="fill:#0066b2"/><path d="M624.19,480.33H614.5l-11,31.56h8.4l1.56-5.32a20.87,20.87,0,0,0,11.77,0l1.56,5.32h8.41Zm-4.85,20.55a14.39,14.39,0,0,1-4-.58l4-13.77,4,13.77a14.33,14.33,0,0,1-4,.58" transform="translate(-345.72 -473.53)" style="fill:#0066b2"/></svg>