<?xml version="1.0" encoding="UTF-8"?><svg id="uuid-4aec4923-693f-4244-8b34-8c87457532ff" xmlns="http://www.w3.org/2000/svg" viewBox="0 0 338.66 96">
<title>HubSpot logo - Brandlogos.net</title><polygon points="36.68 54.33 11.81 54.33 11.81 80.53 0 80.53 0 15.89 11.81 15.89 11.81 42.97 36.68 42.97 36.68 15.89 48.48 15.89 48.48 80.53 36.68 80.53 36.68 54.33" style="fill:#213343;"/><path d="M86.27,59.64c0,5.38-4.39,9.76-9.77,9.76s-9.77-4.38-9.77-9.76v-27.68h-11.18v27.68c0,11.55,9.4,20.95,20.95,20.95s20.95-9.4,20.95-20.95v-27.68h-11.18v27.68Z" style="fill:#213343;"/><path d="M169.25,34.8c0-5.68,3.76-7.48,7.87-7.48,3.31,0,7.69,2.52,10.55,5.58l7.33-8.64c-3.66-4.95-11.09-8.37-17.17-8.37-12.17,0-20.93,7.11-20.93,18.91,0,21.88,26.75,14.94,26.75,27.19,0,3.78-3.67,7.11-7.87,7.11-6.62,0-8.77-3.24-11.81-6.66l-8.14,8.46c5.19,6.39,11.63,9.64,19.32,9.64,11.54,0,20.84-7.2,20.84-18.46,0-24.31-26.75-16.75-26.75-27.28Z" style="fill:#213343;"/><path d="M334.72,70.2c-6.62,0-8.5-2.86-8.5-7.25v-19.41h10.28v-9.84h-10.28v-12.97l-11.36,5.1v39.54c0,10.11,6.97,15.21,16.54,15.21,1.43,0,3.4-.09,4.48-.36l2.77-10.2c-1.25.09-2.68.18-3.94.18Z" style="fill:#213343;"/><path d="M128.89,32.28c-5.55,0-9.42,1.61-13.16,5.28v-21.28h-11.22v39.44c0,14.76,10.67,24.87,22.66,24.87,13.33,0,25.01-10.29,25.01-24.15s-10.77-24.15-23.29-24.15ZM128.82,69.29c-7.03,0-12.72-5.7-12.72-12.72s5.7-12.72,12.72-12.72,12.72,5.7,12.72,12.72-5.7,12.72-12.72,12.72Z" style="fill:#213343;"/><path d="M250.68,55.85c0-13.86-11.68-24.15-25.01-24.15-11.99,0-22.66,10.11-22.66,24.87v39.44h11.22v-21.28c3.74,3.67,7.61,5.28,13.16,5.28,12.53,0,23.29-10.47,23.29-24.15ZM240.04,55.71c0,7.03-5.7,12.72-12.72,12.72s-12.72-5.7-12.72-12.72,5.7-12.72,12.72-12.72c7.03,0,12.72,5.7,12.72,12.72Z" style="fill:#213343;"/><path d="M286.93,31.15v-11.27c2.94-1.39,5-4.37,5-7.82v-.26c0-4.77-3.9-8.66-8.66-8.66h-.26c-4.77,0-8.67,3.9-8.67,8.66v.26c0,3.45,2.06,6.43,5,7.82v11.27c-4.38.68-8.38,2.48-11.68,5.14l-30.94-24.07c.2-.78.35-1.59.35-2.44C237.08,4.39,232.71,0,227.31,0c-5.4,0-9.78,4.36-9.79,9.76,0,5.4,4.36,9.78,9.76,9.79,1.76,0,3.39-.5,4.81-1.31l30.43,23.68c-2.59,3.91-4.1,8.59-4.1,13.62s1.67,10.15,4.48,14.17l-9.26,9.26c-.73-.22-1.49-.37-2.29-.37-4.44,0-8.03,3.6-8.03,8.03s3.6,8.03,8.03,8.03,8.03-3.6,8.03-8.03c0-.8-.15-1.56-.37-2.29l9.16-9.16c4.16,3.17,9.33,5.08,14.96,5.08,13.65,0,24.71-11.06,24.71-24.71,0-12.35-9.07-22.56-20.92-24.39ZM283.14,68.21c-7,0-12.67-5.67-12.67-12.67s5.67-12.67,12.67-12.67,12.67,5.67,12.67,12.67-5.67,12.67-12.67,12.67Z" style="fill:#ff5c35;"/></svg>