<svg id="Layer_1" data-name="Layer 1" xmlns="http://www.w3.org/2000/svg" width="264.65" height="66.96" viewBox="0 0 264.65 66.96"><title>Slack 2019 logo - Brandlogos.net</title><path d="M336.34,403.25l3.31-7.68a22,22,0,0,0,13,4.05c3.47,0,5.65-1.33,5.65-3.36-.05-5.65-20.74-1.23-20.9-15.41-.05-7.2,6.34-12.74,15.41-12.74,5.38,0,10.77,1.33,14.61,4.37l-3.09,7.84a23.34,23.34,0,0,0-12-3.84c-2.83,0-4.69,1.33-4.69,3,.05,5.54,20.9,2.51,21.11,16,0,7.36-6.24,12.53-15.19,12.53-6.56,0-12.58-1.55-17.17-4.85" transform="translate(-251.68 -350.52)"/><path d="M463.17,392.8a9.54,9.54,0,1,1,0-9.38l9.12-5.06a20,20,0,1,0,0,19.51Z" transform="translate(-251.68 -350.52)"/><rect x="121.61" y="1.01" width="11.41" height="55.82"/><polygon points="225.09 1.01 225.09 56.83 236.5 56.83 236.5 40.09 250.04 56.83 264.65 56.83 247.43 36.95 263.37 18.39 249.4 18.39 236.5 33.8 236.5 1.01 225.09 1.01"/><path d="M418.6,392.9a10.52,10.52,0,0,1-8.9,4.74,9.54,9.54,0,0,1,0-19.09,10.53,10.53,0,0,1,8.9,4.9Zm0-24v4.53c-1.87-3.15-6.5-5.33-11.36-5.33-10,0-17.91,8.85-17.91,19.94s7.89,20,17.91,20c4.85,0,9.49-2.19,11.36-5.33v4.53H430V368.91Z" transform="translate(-251.68 -350.52)"/><path d="M265.8,392.85a7,7,0,1,1-7-7h7Z" transform="translate(-251.68 -350.52)" style="fill:#e01e5a"/><path d="M269.32,392.85a7,7,0,1,1,14.07,0v17.59a7,7,0,0,1-14.07,0Z" transform="translate(-251.68 -350.52)" style="fill:#e01e5a"/><path d="M276.36,364.59a7,7,0,1,1,7-7v7Z" transform="translate(-251.68 -350.52)" style="fill:#36c5f0"/><path d="M276.36,368.17a7,7,0,0,1,0,14.07H258.71a7,7,0,1,1,0-14.07Z" transform="translate(-251.68 -350.52)" style="fill:#36c5f0"/><path d="M304.56,375.2a7,7,0,1,1,7,7h-7Z" transform="translate(-251.68 -350.52)" style="fill:#2eb67d"/><path d="M301,375.2a7,7,0,0,1-14.07,0V357.56a7,7,0,1,1,14.07,0Z" transform="translate(-251.68 -350.52)" style="fill:#2eb67d"/><path d="M294,403.41a7,7,0,1,1-7,7v-7Z" transform="translate(-251.68 -350.52)" style="fill:#ecb22e"/><path d="M294,399.89a7,7,0,0,1,0-14.07h17.65a7,7,0,0,1,0,14.07Z" transform="translate(-251.68 -350.52)" style="fill:#ecb22e"/></svg>