<svg xmlns="http://www.w3.org/2000/svg" viewBox="0 0 171 71.15"><defs><style>.a{fill:#635bff;}</style></defs><title>Stripe logo</title><path class="a" d="M597.5,513.19c0-12.16-5.89-21.75-17.15-21.75s-18.15,9.59-18.15,21.66c0,14.3,8.07,21.52,19.66,21.52A26.48,26.48,0,0,0,595,531.52V522a25.22,25.22,0,0,1-11.64,2.61c-4.61,0-8.69-1.61-9.21-7.22H597.4C597.4,516.8,597.5,514.33,597.5,513.19ZM574,508.68c0-5.37,3.28-7.6,6.27-7.6s6,2.23,6,7.6Z" transform="translate(-426.5 -476.42)"/><path class="a" d="M543.87,491.43a13.42,13.42,0,0,0-9.31,3.71l-.62-2.94H523.5v55.38l11.87-2.52,0-13.44a13.38,13.38,0,0,0,8.41,3c8.5,0,16.25-6.84,16.25-21.9C560,498.94,552.18,491.43,543.87,491.43ZM541,524.16a7.1,7.1,0,0,1-5.6-2.23l0-17.62A7.07,7.07,0,0,1,541,502c4.32,0,7.31,4.84,7.31,11.07S545.39,524.16,541,524.16Z" transform="translate(-426.5 -476.42)"/><polygon class="a" points="80.66 12.21 92.58 9.64 92.58 0 80.66 2.52 80.66 12.21"/><rect class="a" x="80.65" y="15.82" width="11.92" height="41.56"/><path class="a" d="M494.38,495.75l-.76-3.52H483.36V533.8h11.87V505.63c2.8-3.66,7.55-3,9-2.47V492.24C502.74,491.67,497.18,490.63,494.38,495.75Z" transform="translate(-426.5 -476.42)"/><path class="a" d="M470.63,481.93,459,484.4l0,38a11.94,11.94,0,0,0,12.3,12.21,18.35,18.35,0,0,0,8.31-1.57v-9.64c-1.52.62-9,2.8-9-4.23V502.36h9V492.24h-9Z" transform="translate(-426.5 -476.42)"/><path class="a" d="M438.52,504.3c0-1.85,1.52-2.57,4-2.57a26.49,26.49,0,0,1,11.78,3V493.62a31.32,31.32,0,0,0-11.78-2.18c-9.64,0-16.06,5-16.06,13.44,0,13.11,18,11,18,16.67,0,2.19-1.9,2.9-4.56,2.9-3.94,0-9-1.61-13-3.8V532a32.93,32.93,0,0,0,13,2.71c9.88,0,16.67-4.89,16.67-13.39C456.62,507.11,438.52,509.63,438.52,504.3Z" transform="translate(-426.5 -476.42)"/></svg>