<?xml version="1.0" encoding="UTF-8"?><svg id="Layer_1" xmlns="http://www.w3.org/2000/svg" viewBox="0 0 2034.31 406.47"><defs><style>.cls-1{fill-rule:evenodd;}</style></defs><path class="cls-1" d="M467.44,406.47L233.72,0,0,406.47h467.44ZM703.19,387.97L898.51,18.48h-84.49l-134.74,268.34L544.55,18.48h-84.49l195.32,369.49h47.8ZM2034.31,18.48v369.49h-69.94V18.48h69.94ZM1644.98,250.06c0-28.8,6.01-54.12,18.03-75.98,12.02-21.86,28.78-38.68,50.27-50.48s46.63-17.69,75.41-17.69c25.5,0,48.45,5.55,68.85,16.65,20.4,11.1,36.61,27.58,48.63,49.44,12.02,21.86,18.22,48.57,18.58,80.14v16.13h-206c1.45,22.9,8.19,40.94,20.21,54.12,12.39,12.84,28.97,19.25,49.73,19.25,13.11,0,25.14-3.47,36.06-10.41,10.93-6.94,19.13-16.31,24.59-28.1l71.59,5.2c-8.75,26.02-25.14,46.84-49.18,62.45-24.05,15.61-51.73,23.42-83.06,23.42-28.78,0-53.92-5.9-75.41-17.69s-38.25-28.62-50.27-50.48c-12.02-21.86-18.03-47.18-18.03-75.98ZM1852.62,224.04c-2.55-22.55-9.65-39.03-21.31-49.44-11.66-10.75-25.86-16.13-42.62-16.13-19.31,0-34.97,5.73-46.99,17.17-12.03,11.45-19.49,27.58-22.41,48.4h133.33ZM1526.96,174.6c11.66,9.37,18.94,22.38,21.86,39.03l72.12-3.64c-2.55-21.16-10.01-39.55-22.4-55.16-12.39-15.61-28.41-27.58-48.09-35.91-19.3-8.67-40.61-13.01-63.93-13.01-28.78,0-53.91,5.9-75.41,17.69-21.49,11.8-38.25,28.62-50.27,50.48-12.02,21.86-18.03,47.18-18.03,75.98s6.01,54.12,18.03,75.98c12.02,21.86,28.78,38.68,50.27,50.48,21.5,11.8,46.63,17.69,75.41,17.69,24.04,0,45.9-4.34,65.57-13.01,19.68-9.02,35.7-21.68,48.09-37.99,12.39-16.31,19.85-35.39,22.4-57.24l-72.67-3.12c-2.55,18.39-9.66,32.61-21.31,42.67-11.66,9.71-25.69,14.57-42.08,14.57-22.58,0-40.07-7.81-52.46-23.42-12.38-15.61-18.57-37.82-18.57-66.61s6.19-51,18.57-66.61c12.39-15.61,29.88-23.42,52.46-23.42,15.67,0,29.14,4.86,40.44,14.57ZM1172.15,112.14h65.09l1.88,53.09c4.62-15.03,11.04-26.7,19.27-35.01,11.93-12.05,28.57-18.08,49.9-18.08h26.58v56.82h-27.12c-15.19,0-27.66,2.07-37.43,6.2-9.4,4.13-16.63,10.68-21.69,19.63-4.7,8.95-7.05,20.32-7.05,34.09v159.1h-69.43V112.14ZM871.92,174.08c-12.02,21.86-18.03,47.18-18.03,75.98s6.01,54.12,18.03,75.98c12.02,21.86,28.78,38.68,50.27,50.48,21.49,11.8,46.63,17.69,75.41,17.69,31.32,0,59.01-7.81,83.05-23.42,24.05-15.61,40.44-36.43,49.18-62.45l-71.58-5.2c-5.46,11.8-13.66,21.16-24.59,28.1-10.93,6.94-22.95,10.41-36.06,10.41-20.77,0-37.34-6.42-49.73-19.25-12.02-13.18-18.76-31.23-20.22-54.12h206.01v-16.13c-.37-31.57-6.56-58.29-18.58-80.14-12.02-21.86-28.23-38.34-48.63-49.44-20.4-11.1-43.35-16.65-68.85-16.65-28.78,0-53.92,5.9-75.41,17.69-21.49,11.8-38.25,28.62-50.27,50.48ZM1040.23,174.6c11.65,10.41,18.76,26.89,21.31,49.44h-133.33c2.91-20.82,10.38-36.95,22.4-48.4,12.02-11.45,27.69-17.17,46.99-17.17,16.75,0,30.96,5.38,42.62,16.13Z"/></svg>